<svg data-v-423bf9ae="" xmlns="http://www.w3.org/2000/svg" viewBox="0 0 585 90" class="iconLeft"><!----><!----><!----><g data-v-423bf9ae="" id="5e58f373-2372-47a9-a783-d3ce0106d059" fill="#000000" transform="matrix(5.71973320392212,0,0,5.71973320392212,141.46651269374468,-3.817922022713269)"><path d="M14.11 3.92L11.86 3.92L10.28 11.94L8.82 4.06L5.70 4.06L4.20 11.87L2.72 3.92L0.36 3.92L2.74 13.58L5.67 13.58L7.22 5.75L8.68 13.58L11.59 13.58ZM17.98 5.92C15.50 5.92 14.04 7.52 14.04 9.84C14.04 12.17 15.50 13.78 17.98 13.78C20.44 13.78 21.91 12.17 21.91 9.84C21.91 7.52 20.44 5.92 17.98 5.92ZM17.98 12.26C16.93 12.26 16.30 11.40 16.30 9.84C16.30 8.29 16.93 7.43 17.98 7.43C19.01 7.43 19.64 8.29 19.64 9.84C19.64 11.40 19.01 12.26 17.98 12.26ZM26.56 5.92C24.08 5.92 22.62 7.52 22.62 9.84C22.62 12.17 24.08 13.78 26.56 13.78C29.02 13.78 30.49 12.17 30.49 9.84C30.49 7.52 29.02 5.92 26.56 5.92ZM26.56 12.26C25.51 12.26 24.88 11.40 24.88 9.84C24.88 8.29 25.51 7.43 26.56 7.43C27.59 7.43 28.22 8.29 28.22 9.84C28.22 11.40 27.59 12.26 26.56 12.26ZM39.19 3.29L36.99 3.29L36.99 7.10L36.50 6.31C36.12 6.08 35.38 5.92 34.76 5.92C32.84 5.92 31.21 7.32 31.21 10.00C31.21 12.21 32.45 13.78 34.51 13.78C35.27 13.78 36.01 13.61 36.43 13.29L36.99 12.46L36.99 13.58L39.19 13.58ZM35.21 12.26C34.17 12.26 33.46 11.34 33.46 9.87C33.46 8.25 34.22 7.43 35.28 7.43C36.11 7.43 36.99 7.99 36.99 9.59L36.99 9.94C36.99 11.65 36.20 12.26 35.21 12.26ZM43.71 5.92C41.83 5.92 40.60 6.82 40.60 8.27C40.60 9.55 41.51 10.18 42.91 10.53C44.23 10.84 44.70 11.13 44.70 11.66C44.70 12.14 44.28 12.36 43.75 12.36C43.13 12.36 42.63 11.98 42.48 11.28L40.31 11.28C40.50 12.96 41.83 13.78 43.74 13.78C45.49 13.78 46.90 13.05 46.90 11.49C46.90 10.09 45.98 9.49 44.53 9.13C43.20 8.79 42.80 8.51 42.80 8.01C42.80 7.62 43.09 7.32 43.57 7.32C44.11 7.32 44.44 7.67 44.56 8.29L46.73 8.29C46.55 6.93 45.51 5.92 43.71 5.92ZM50.64 7.57L52.22 7.57L52.22 6.17L50.64 6.17L50.64 4.30L48.44 4.30L48.44 6.17L47.31 6.17L47.31 7.57L48.44 7.57L48.44 11.00C48.44 11.42 48.44 11.76 48.47 12.14C48.55 13.23 49.08 13.76 50.72 13.76C51.20 13.76 51.63 13.72 52.08 13.65L52.08 12.25C50.96 12.32 50.71 12.15 50.65 11.41C50.64 11.21 50.64 10.96 50.64 10.71ZM56.66 5.92C54.18 5.92 52.72 7.52 52.72 9.84C52.72 12.17 54.18 13.78 56.66 13.78C59.12 13.78 60.59 12.17 60.59 9.84C60.59 7.52 59.12 5.92 56.66 5.92ZM56.66 12.26C55.61 12.26 54.98 11.40 54.98 9.84C54.98 8.29 55.61 7.43 56.66 7.43C57.69 7.43 58.32 8.29 58.32 9.84C58.32 11.40 57.69 12.26 56.66 12.26ZM65.13 5.92C63.01 5.92 61.31 7.35 61.31 9.91C61.31 12.45 62.87 13.78 64.95 13.78C66.89 13.78 68.32 12.81 68.61 10.93L66.44 10.93C66.28 11.80 65.74 12.26 65.07 12.26C64.16 12.26 63.56 11.51 63.56 9.77C63.56 8.19 64.15 7.43 65.07 7.43C65.80 7.43 66.32 7.85 66.47 8.88L68.61 8.88C68.50 7.21 67.21 5.92 65.13 5.92ZM72.56 10.72L74.73 13.58L77.46 13.58L74.19 9.56L77.42 6.12L74.82 6.12L71.99 9.39L71.99 3.29L69.79 3.29L69.79 13.58L71.99 13.58L71.99 11.35Z"></path></g><defs data-v-423bf9ae=""><linearGradient data-v-423bf9ae="" gradientTransform="rotate(25)" id="043028e7-71ab-4861-83bd-4fa3bf20a3c8" x1="0%" y1="0%" x2="100%" y2="0%"><stop data-v-423bf9ae="" offset="0%" style="stop-color: rgb(86, 63, 51); stop-opacity: 1;"></stop><stop data-v-423bf9ae="" offset="100%" style="stop-color: rgb(163, 161, 161); stop-opacity: 1;"></stop></linearGradient></defs><g data-v-423bf9ae="" id="d5a15214-b4ee-425b-9932-3058f92d6868" transform="matrix(3.860175764033615,0,0,3.860175764033615,0.23718777546216074,-16.421744111390325)" stroke="none" fill="url(#043028e7-71ab-4861-83bd-4fa3bf20a3c8)"><path d="M12.289 5.343v19.9L1 13.954V5.343h11.289m1-1H0v10.026l13.289 13.289V4.343zM31 5.343v8.612L19.711 25.243v-19.9H31m1-1H18.711v23.315L32 14.369V4.343z"></path></g><!----></svg>