<svg data-v-423bf9ae="" xmlns="http://www.w3.org/2000/svg" viewBox="0 0 525 90" class="iconLeft"><!----><!----><!----><g data-v-423bf9ae="" id="e71ec279-dee2-4a87-886d-9dee26b009b3" fill="black" transform="matrix(6.19195073253312,0,0,6.19195073253312,107.83280566884673,-32.67801802897267)"><path d="M9.48 8.43L10.88 8.43L9.41 17.18L7.22 17.18L5.61 10.23L4.00 17.18L1.82 17.18L0.35 8.43L1.75 8.43L2.95 15.89L3.08 15.89L4.87 8.43L6.36 8.43L8.15 15.89L8.27 15.89L9.48 8.43ZM15.11 17.32L15.11 17.32Q13.85 17.32 13.21 17.02L13.21 17.02L13.21 17.02Q12.57 16.72 12.32 15.95L12.32 15.95L12.32 15.95Q12.07 15.18 12.07 13.68L12.07 13.68L12.07 13.68Q12.07 12.18 12.32 11.41L12.32 11.41L12.32 11.41Q12.57 10.64 13.21 10.34L13.21 10.34L13.21 10.34Q13.85 10.04 15.11 10.04L15.11 10.04L15.11 10.04Q16.38 10.04 17.01 10.34L17.01 10.34L17.01 10.34Q17.64 10.64 17.89 11.40L17.89 11.40L17.89 11.40Q18.14 12.17 18.14 13.68L18.14 13.68L18.14 13.68Q18.14 15.18 17.89 15.95L17.89 15.95L17.89 15.95Q17.64 16.72 17.00 17.02L17.00 17.02L17.00 17.02Q16.37 17.32 15.11 17.32L15.11 17.32ZM13.52 16.17L16.02 16.17L16.02 16.17Q16.42 16.17 16.55 16.10L16.55 16.10L16.55 16.10Q16.69 16.03 16.69 15.82L16.69 15.82L16.69 11.19L14.20 11.19L14.20 11.19Q13.79 11.19 13.66 11.26L13.66 11.26L13.66 11.26Q13.52 11.33 13.52 11.54L13.52 11.54L13.52 16.17ZM22.86 17.32L22.86 17.32Q21.60 17.32 20.97 17.02L20.97 17.02L20.97 17.02Q20.33 16.72 20.08 15.95L20.08 15.95L20.08 15.95Q19.82 15.18 19.82 13.68L19.82 13.68L19.82 13.68Q19.82 12.18 20.08 11.41L20.08 11.41L20.08 11.41Q20.33 10.64 20.97 10.34L20.97 10.34L20.97 10.34Q21.60 10.04 22.86 10.04L22.86 10.04L22.86 10.04Q24.14 10.04 24.77 10.34L24.77 10.34L24.77 10.34Q25.40 10.64 25.65 11.40L25.65 11.40L25.65 11.40Q25.90 12.17 25.90 13.68L25.90 13.68L25.90 13.68Q25.90 15.18 25.65 15.95L25.65 15.95L25.65 15.95Q25.40 16.72 24.76 17.02L24.76 17.02L24.76 17.02Q24.12 17.32 22.86 17.32L22.86 17.32ZM21.28 16.17L23.77 16.17L23.77 16.17Q24.18 16.17 24.31 16.10L24.31 16.10L24.31 16.10Q24.44 16.03 24.44 15.82L24.44 15.82L24.44 11.19L21.95 11.19L21.95 11.19Q21.55 11.19 21.41 11.26L21.41 11.26L21.41 11.26Q21.28 11.33 21.28 11.54L21.28 11.54L21.28 16.17ZM32.05 7.87L33.45 7.70L33.45 17.18L32.80 17.18L32.49 16.62L32.49 16.62Q32.21 17.05 31.69 17.22L31.69 17.22L31.69 17.22Q31.16 17.39 30.24 17.39L30.24 17.39L30.24 17.39Q29.12 17.39 28.57 17.09L28.57 17.09L28.57 17.09Q28.01 16.80 27.80 16.03L27.80 16.03L27.80 16.03Q27.58 15.26 27.58 13.68L27.58 13.68L27.58 13.68Q27.58 12.19 27.79 11.42L27.79 11.42L27.79 11.42Q28.00 10.65 28.52 10.35L28.52 10.35L28.52 10.35Q29.04 10.04 30.04 10.04L30.04 10.04L30.04 10.04Q30.76 10.04 31.24 10.12L31.24 10.12L31.24 10.12Q31.72 10.19 32.05 10.37L32.05 10.37L32.05 7.87ZM32.05 15.89L32.05 11.19L29.69 11.19L29.69 11.19Q29.32 11.19 29.18 11.26L29.18 11.26L29.18 11.26Q29.05 11.33 29.05 11.54L29.05 11.54L29.05 16.24L31.40 16.24L31.40 16.24Q31.78 16.24 31.91 16.17L31.91 16.17L31.91 16.17Q32.05 16.10 32.05 15.89L32.05 15.89ZM35.49 12.05L35.49 12.05Q35.49 10.98 36.13 10.47L36.13 10.47L36.13 10.47Q36.76 9.97 38.14 9.97L38.14 9.97L38.14 9.97Q39.35 9.97 40.46 10.28L40.46 10.28L40.26 11.30L40.26 11.30Q39.91 11.20 39.44 11.14L39.44 11.14L39.44 11.14Q38.96 11.07 38.56 11.07L38.56 11.07L38.56 11.07Q37.72 11.07 36.96 11.20L36.96 11.20L36.96 12.85L36.96 12.85Q38.64 13.09 39.43 13.34L39.43 13.34L39.43 13.34Q40.22 13.58 40.52 13.99L40.52 13.99L40.52 13.99Q40.81 14.41 40.81 15.20L40.81 15.20L40.81 15.20Q40.81 16.00 40.52 16.48L40.52 16.48L40.52 16.48Q40.24 16.95 39.59 17.17L39.59 17.17L39.59 17.17Q38.95 17.39 37.87 17.39L37.87 17.39L37.87 17.39Q36.67 17.39 35.34 16.98L35.34 16.98L35.56 15.86L35.56 15.86Q36.64 16.28 37.86 16.28L37.86 16.28L37.86 16.28Q38.28 16.28 38.60 16.24L38.60 16.24L38.60 16.24Q38.92 16.20 39.34 16.09L39.34 16.09L39.34 14.43L39.34 14.43Q37.53 14.18 36.76 13.94L36.76 13.94L36.76 13.94Q35.99 13.71 35.74 13.31L35.74 13.31L35.74 13.31Q35.49 12.91 35.49 12.05L35.49 12.05ZM45.77 11.14L44.52 11.14L44.52 16.14L44.52 16.14Q45.02 16.20 45.51 16.21L45.51 16.21L45.43 17.16L45.43 17.16Q44.65 17.32 44.16 17.32L44.16 17.32L44.16 17.32Q43.62 17.32 43.37 17.06L43.37 17.06L43.37 17.06Q43.12 16.80 43.12 16.27L43.12 16.27L43.12 11.14L42.14 11.14L42.14 10.18L43.12 10.18L43.12 8.68L44.52 8.33L44.52 10.18L45.77 10.18L45.77 11.14ZM50.27 17.32L50.27 17.32Q49.01 17.32 48.38 17.02L48.38 17.02L48.38 17.02Q47.74 16.72 47.49 15.95L47.49 15.95L47.49 15.95Q47.24 15.18 47.24 13.68L47.24 13.68L47.24 13.68Q47.24 12.18 47.49 11.41L47.49 11.41L47.49 11.41Q47.74 10.64 48.38 10.34L48.38 10.34L48.38 10.34Q49.01 10.04 50.27 10.04L50.27 10.04L50.27 10.04Q51.55 10.04 52.18 10.34L52.18 10.34L52.18 10.34Q52.81 10.64 53.06 11.40L53.06 11.40L53.06 11.40Q53.31 12.17 53.31 13.68L53.31 13.68L53.31 13.68Q53.31 15.18 53.06 15.95L53.06 15.95L53.06 15.95Q52.81 16.72 52.17 17.02L52.17 17.02L52.17 17.02Q51.53 17.32 50.27 17.32L50.27 17.32ZM48.69 16.17L51.18 16.17L51.18 16.17Q51.59 16.17 51.72 16.10L51.72 16.10L51.72 16.10Q51.86 16.03 51.86 15.82L51.86 15.82L51.86 11.19L49.36 11.19L49.36 11.19Q48.96 11.19 48.83 11.26L48.83 11.26L48.83 11.26Q48.69 11.33 48.69 11.54L48.69 11.54L48.69 16.17ZM57.51 17.32L57.51 17.32Q56.48 17.32 55.94 17.01L55.94 17.01L55.94 17.01Q55.41 16.70 55.20 15.94L55.20 15.94L55.20 15.94Q54.99 15.18 54.99 13.68L54.99 13.68L54.99 13.68Q54.99 12.18 55.20 11.41L55.20 11.41L55.20 11.41Q55.41 10.64 55.94 10.34L55.94 10.34L55.94 10.34Q56.48 10.04 57.51 10.04L57.51 10.04L57.51 10.04Q58.09 10.04 58.71 10.11L58.71 10.11L58.71 10.11Q59.33 10.18 59.78 10.29L59.78 10.29L59.61 11.35L59.61 11.35Q58.60 11.14 57.67 11.14L57.67 11.14L57.67 11.14Q56.98 11.14 56.71 11.40L56.71 11.40L56.71 11.40Q56.45 11.66 56.45 12.32L56.45 12.32L56.45 16.06L56.45 16.06Q56.95 16.21 57.88 16.21L57.88 16.21L57.88 16.21Q58.32 16.21 58.75 16.14L58.75 16.14L58.75 16.14Q59.18 16.06 59.78 15.88L59.78 15.88L59.93 16.90L59.93 16.90Q59.46 17.09 58.82 17.21L58.82 17.21L58.82 17.21Q58.18 17.32 57.51 17.32L57.51 17.32ZM64.26 13.93L63.15 13.93L63.15 17.18L61.75 17.18L61.75 8.08L63.15 7.87L63.15 12.95L64.26 12.95L65.74 10.18L67.21 10.18L65.42 13.44L67.28 17.18L65.84 17.18L64.26 13.93Z"></path></g><!----><g data-v-423bf9ae="" id="c9059d70-5e3b-477d-89d8-f61679aff8b9" transform="matrix(2.8125,0,0,2.8125,0,0)" stroke="none" fill="black"><circle cx="16" cy="16.021" r="8.066"></circle><path d="M32 0H0v32h32V0zM16 26.086c-5.551 0-10.066-4.516-10.066-10.065 0-5.55 4.516-10.066 10.066-10.066 5.55 0 10.065 4.516 10.065 10.066.001 5.55-4.515 10.065-10.065 10.065z"></path></g><!----></svg>